# xmcd CD database file
#
# Track frame offsets:
#	150
#	14309
#	33174
#	54712
#	76837
#	97727
#	116688
#	143174
#	162853
#	182572
#	205661
#	229394
#	249839
#	271047
#	286598
#	304425
#	329008
#
# Disc length: 4709 seconds
#
# Revision: 0
# Processed by: cddbd v1.5.2PL0 Copyright (c) Steve Scherf et al.
# Submitted via: jetAudio 7
#
DISCID=db126311
DTITLE=My Dung-Ho Ngoc Ha - My Dung - Ho Ngoc Ha
DYEAR=1900
DGENRE=Pop
TTITLE0=Van mai yeu anh
TTITLE1=Me, con da ve
TTITLE2=Dau co loi lam
TTITLE3=Chuyen nguoi con gai
TTITLE4=Con mai yeu anh
TTITLE5=Hoa nang
TTITLE6=Em se nho mai
TTITLE7=Yeu trong hy vong
TTITLE8=Ve noi hanh phuc
TTITLE9=Trach hon
TTITLE10=Dem nghe tieng mua
TTITLE11=Va em da yeu
TTITLE12=Yeu thuong mong manh
TTITLE13=Co nho dem nao
TTITLE14=Anh da ra di
TTITLE15=Noi long
TTITLE16=Hom nay anh den
EXTD=
EXTT0=
EXTT1=
EXTT2=
EXTT3=
EXTT4=
EXTT5=
EXTT6=
EXTT7=
EXTT8=
EXTT9=
EXTT10=
EXTT11=
EXTT12=
EXTT13=
EXTT14=
EXTT15=
EXTT16=
PLAYORDER=
